#N canvas 368 30 632 522 10;
#X floatatom 40 139 5 0 0 0 - - -, f 5;
#X obj 40 91 f;
#X obj 72 92 + 1;
#X obj 72 114 mod 16;
#X obj 40 114 + 1;
#X text 84 63 <- reset;
#X msg 55 62 0;
#X obj 215 42 loadbang;
#X msg 105 93 6913;
#X obj 40 167 % 16;
#X obj 40 190 sel 2;
#X msg 40 220 50;
#X obj 94 190 sel 0;
#X obj 151 190 sel 0;
#X obj 205 190 sel 0;
#X obj 258 190 sel 0;
#X obj 312 190 sel 0;
#X obj 369 190 sel 0;
#X obj 423 190 sel 0;
#X obj 476 190 sel 0;
#X obj 94 167 % 13;
#X obj 151 167 % 17;
#X obj 205 167 % 19;
#X obj 258 167 % 23;
#X obj 312 167 % 31;
#X obj 369 167 % 37;
#X obj 423 167 % 41;
#X obj 476 167 % 43;
#X msg 94 220 57;
#X msg 151 220 62;
#X msg 205 220 63;
#X msg 258 220 69;
#X msg 312 220 70;
#X msg 369 220 75;
#X msg 423 220 84;
#X msg 476 220 82;
#X obj 40 250 +;
#X floatatom 40 274 5 0 0 0 - - -, f 5;
#X msg 40 18 1;
#X msg 83 18 0;
#X obj 40 338 s midiNo;
#X obj 40 304 mtof;
#X obj 40 40 metro 500;
#X floatatom 118 337 15 0 0 0 - - -, f 15;
#X obj 527 166 r minute;
#X obj 527 220 % 12;
#X obj 527 191 * 7;
#X connect 0 0 9 0;
#X connect 0 0 27 0;
#X connect 0 0 26 0;
#X connect 0 0 25 0;
#X connect 0 0 24 0;
#X connect 0 0 23 0;
#X connect 0 0 22 0;
#X connect 0 0 21 0;
#X connect 0 0 20 0;
#X connect 1 0 2 0;
#X connect 1 0 4 0;
#X connect 2 0 3 0;
#X connect 3 0 1 1;
#X connect 4 0 0 0;
#X connect 6 0 1 1;
#X connect 7 0 8 0;
#X connect 7 0 38 0;
#X connect 8 0 3 1;
#X connect 9 0 10 0;
#X connect 10 0 11 0;
#X connect 11 0 36 0;
#X connect 12 0 28 0;
#X connect 13 0 29 0;
#X connect 14 0 30 0;
#X connect 15 0 31 0;
#X connect 16 0 32 0;
#X connect 17 0 33 0;
#X connect 18 0 34 0;
#X connect 19 0 35 0;
#X connect 20 0 12 0;
#X connect 21 0 13 0;
#X connect 22 0 14 0;
#X connect 23 0 15 0;
#X connect 24 0 16 0;
#X connect 25 0 17 0;
#X connect 26 0 18 0;
#X connect 27 0 19 0;
#X connect 28 0 36 0;
#X connect 29 0 36 0;
#X connect 30 0 36 0;
#X connect 31 0 36 0;
#X connect 32 0 36 0;
#X connect 33 0 36 0;
#X connect 34 0 36 0;
#X connect 35 0 36 0;
#X connect 36 0 37 0;
#X connect 37 0 41 0;
#X connect 38 0 42 0;
#X connect 39 0 42 0;
#X connect 41 0 40 0;
#X connect 41 0 43 0;
#X connect 42 0 1 0;
#X connect 44 0 46 0;
#X connect 45 0 36 1;
#X connect 46 0 45 0;
