#N canvas 173 23 1071 732 10;
#X obj 40 40 metro 500;
#X floatatom 40 139 5 0 0 0 - - -, f 5;
#X obj 40 91 f;
#X obj 72 92 + 1;
#X obj 72 114 mod 16;
#X obj 40 114 + 1;
#X text 84 63 <- reset;
#X msg 55 62 0;
#X obj 215 42 loadbang;
#X msg 105 93 6913;
#X obj 40 167 % 16;
#X obj 40 190 sel 2;
#X msg 40 220 50;
#X obj 94 190 sel 0;
#X obj 151 190 sel 0;
#X obj 205 190 sel 0;
#X obj 258 190 sel 0;
#X obj 312 190 sel 0;
#X obj 369 190 sel 0;
#X obj 423 190 sel 0;
#X obj 476 190 sel 0;
#X obj 94 167 % 13;
#X obj 151 167 % 17;
#X obj 205 167 % 19;
#X obj 258 167 % 23;
#X obj 312 167 % 31;
#X obj 369 167 % 37;
#X obj 423 167 % 41;
#X obj 476 167 % 43;
#X msg 94 220 57;
#X msg 151 220 62;
#X msg 205 220 63;
#X msg 258 220 69;
#X msg 312 220 70;
#X msg 369 220 75;
#X msg 423 220 84;
#X msg 476 220 82;
#X obj 40 250 +;
#X floatatom 40 274 5 0 0 0 - - -, f 5;
#N canvas 718 461 537 461 synth1 0;
#X obj 183 201 line~;
#X obj 183 317 *~;
#X obj 183 346 outlet~;
#X text 297 235 velocity(vol);
#X obj 164 49 inlet;
#X obj 183 179 pack 0 10;
#X obj 183 282 osc~;
#X obj 183 138 mtof;
#X obj 240 282 line~;
#X msg 164 235 0 800;
#X text 163 29 MIDI No;
#X msg 240 235 0.8 400;
#X obj 164 77 t b f b;
#X obj 164 104 del 400;
#X connect 0 0 6 0;
#X connect 1 0 2 0;
#X connect 4 0 12 0;
#X connect 5 0 0 0;
#X connect 6 0 1 0;
#X connect 7 0 5 0;
#X connect 8 0 1 1;
#X connect 9 0 8 0;
#X connect 11 0 8 0;
#X connect 12 0 13 0;
#X connect 12 1 7 0;
#X connect 12 2 11 0;
#X connect 13 0 9 0;
#X restore 248 274 pd synth1;
#X obj 248 511 *~ 1;
#X msg 40 18 1;
#X obj 248 560 +~;
#X obj 248 688 dac~;
#X msg 83 18 0;
#X obj 248 606 delread~ simple_delay_1 750;
#X obj 259 585 delwrite~ simple_delay_1 1000;
#X obj 40 405 s m1;
#X obj 57 425 s m2;
#X obj 74 405 s m3;
#X obj 248 255 r m1;
#X obj 248 656 hip~ 5;
#X text 381 79 makenote / vline~ / route / unpack / line / pipe / gate
;
#N canvas 395 144 771 582 gate_4 0;
#X obj 94 293 spigot;
#X obj 94 355 outlet;
#X obj 94 93 inlet;
#X obj 240 95 inlet;
#X msg 153 268 0;
#X msg 126 268 1;
#X obj 126 225 sel 1;
#X text 280 95 index;
#X obj 203 293 spigot;
#X obj 203 355 outlet;
#X msg 262 268 0;
#X msg 235 268 1;
#X obj 321 294 spigot;
#X obj 321 356 outlet;
#X msg 380 269 0;
#X msg 353 269 1;
#X obj 430 294 spigot;
#X obj 430 356 outlet;
#X msg 489 269 0;
#X msg 462 269 1;
#X obj 235 225 sel 2;
#X obj 353 226 sel 3;
#X obj 462 226 sel 4;
#X connect 0 0 1 0;
#X connect 2 0 0 0;
#X connect 2 0 8 0;
#X connect 2 0 16 0;
#X connect 2 0 12 0;
#X connect 3 0 6 0;
#X connect 3 0 20 0;
#X connect 3 0 22 0;
#X connect 3 0 21 0;
#X connect 4 0 0 1;
#X connect 5 0 0 1;
#X connect 6 0 5 0;
#X connect 6 1 4 0;
#X connect 8 0 9 0;
#X connect 10 0 8 1;
#X connect 11 0 8 1;
#X connect 12 0 13 0;
#X connect 14 0 12 1;
#X connect 15 0 12 1;
#X connect 16 0 17 0;
#X connect 18 0 16 1;
#X connect 19 0 16 1;
#X connect 20 0 11 0;
#X connect 20 1 10 0;
#X connect 21 0 15 0;
#X connect 21 1 14 0;
#X connect 22 0 19 0;
#X connect 22 1 18 0;
#X restore 40 383 pd gate_4;
#X floatatom 91 363 5 0 0 0 - - -, f 5;
#X obj 91 315 f;
#X obj 123 316 + 1;
#X obj 91 338 + 1;
#X text 135 287 <- reset;
#X msg 106 286 0;
#X obj 123 338 mod 4;
#X obj 40 298 t f b;
#X obj 91 425 s m4;
#N canvas 524 118 537 438 synth1 0;
#X obj 183 201 line~;
#X obj 183 317 *~;
#X obj 183 346 outlet~;
#X text 297 235 velocity(vol);
#X obj 164 49 inlet;
#X obj 183 179 pack 0 10;
#X obj 183 282 osc~;
#X obj 183 138 mtof;
#X obj 240 282 line~;
#X msg 164 235 0 800;
#X text 163 29 MIDI No;
#X msg 240 235 0.8 400;
#X obj 164 77 t b f b;
#X obj 164 104 del 400;
#X connect 0 0 6 0;
#X connect 1 0 2 0;
#X connect 4 0 12 0;
#X connect 5 0 0 0;
#X connect 6 0 1 0;
#X connect 7 0 5 0;
#X connect 8 0 1 1;
#X connect 9 0 8 0;
#X connect 11 0 8 0;
#X connect 12 0 13 0;
#X connect 12 1 7 0;
#X connect 12 2 11 0;
#X connect 13 0 9 0;
#X restore 263 316 pd synth1;
#X obj 263 297 r m2;
#X obj 248 338 +~;
#N canvas 524 118 537 438 synth1 0;
#X obj 183 201 line~;
#X obj 183 317 *~;
#X obj 183 346 outlet~;
#X text 297 235 velocity(vol);
#X obj 164 49 inlet;
#X obj 183 179 pack 0 10;
#X obj 183 282 osc~;
#X obj 183 138 mtof;
#X obj 240 282 line~;
#X msg 164 235 0 800;
#X text 163 29 MIDI No;
#X msg 240 235 0.8 400;
#X obj 164 77 t b f b;
#X obj 164 104 del 400;
#X connect 0 0 6 0;
#X connect 1 0 2 0;
#X connect 4 0 12 0;
#X connect 5 0 0 0;
#X connect 6 0 1 0;
#X connect 7 0 5 0;
#X connect 8 0 1 1;
#X connect 9 0 8 0;
#X connect 11 0 8 0;
#X connect 12 0 13 0;
#X connect 12 1 7 0;
#X connect 12 2 11 0;
#X connect 13 0 9 0;
#X restore 329 274 pd synth1;
#N canvas 524 118 537 438 synth1 0;
#X obj 183 201 line~;
#X obj 183 317 *~;
#X obj 183 346 outlet~;
#X text 297 235 velocity(vol);
#X obj 164 49 inlet;
#X obj 183 179 pack 0 10;
#X obj 183 282 osc~;
#X obj 183 138 mtof;
#X obj 240 282 line~;
#X msg 164 235 0 800;
#X text 163 29 MIDI No;
#X msg 240 235 0.8 400;
#X obj 164 77 t b f b;
#X obj 164 104 del 400;
#X connect 0 0 6 0;
#X connect 1 0 2 0;
#X connect 4 0 12 0;
#X connect 5 0 0 0;
#X connect 6 0 1 0;
#X connect 7 0 5 0;
#X connect 8 0 1 1;
#X connect 9 0 8 0;
#X connect 11 0 8 0;
#X connect 12 0 13 0;
#X connect 12 1 7 0;
#X connect 12 2 11 0;
#X connect 13 0 9 0;
#X restore 344 316 pd synth1;
#X obj 329 338 +~;
#X obj 329 255 r m3;
#X obj 344 297 r m4;
#X obj 248 362 +~;
#X obj 264 631 *~ 0.75;
#X obj 462 255 r m1;
#N canvas 524 118 537 438 synth2 0;
#X obj 183 201 line~;
#X obj 183 347 *~;
#X obj 183 376 outlet~;
#X text 297 235 velocity(vol);
#X obj 164 49 inlet;
#X obj 183 179 pack 0 10;
#X obj 183 138 mtof;
#X obj 240 282 line~;
#X msg 164 235 0 800;
#X text 163 29 MIDI No;
#X msg 240 235 0.8 400;
#X obj 164 77 t b f b;
#X obj 164 104 del 400;
#X obj 183 302 phasor~;
#X obj 183 272 *~ 2;
#X connect 0 0 14 0;
#X connect 1 0 2 0;
#X connect 4 0 11 0;
#X connect 5 0 0 0;
#X connect 6 0 5 0;
#X connect 7 0 1 1;
#X connect 8 0 7 0;
#X connect 10 0 7 0;
#X connect 11 0 12 0;
#X connect 11 1 6 0;
#X connect 11 2 10 0;
#X connect 12 0 8 0;
#X connect 13 0 1 0;
#X connect 14 0 13 0;
#X restore 462 274 pd synth2;
#X obj 688 255 r m1;
#N canvas 106 113 615 616 synth3 0;
#X obj 183 171 line~;
#X obj 183 407 *~;
#X obj 183 436 outlet~;
#X text 297 195 velocity(vol);
#X obj 164 49 inlet;
#X obj 183 149 pack 0 10;
#X obj 183 126 mtof;
#X obj 240 390 line~;
#X text 163 29 MIDI No;
#X obj 164 77 t b f b;
#X obj 183 262 phasor~;
#X obj 183 293 *~ 2;
#X obj 183 343 clip~ 0 1;
#X obj 249 318 +~ 1;
#X obj 249 343 clip~ 0 1;
#X obj 249 293 *~ -2;
#X obj 183 318 +~ -1;
#X obj 183 372 +~;
#X msg 240 195 0.8 10;
#X obj 164 104 del 10;
#X msg 164 195 0 1200;
#X obj 183 222 *~ 6;
#X connect 0 0 21 0;
#X connect 1 0 2 0;
#X connect 4 0 9 0;
#X connect 5 0 0 0;
#X connect 6 0 5 0;
#X connect 7 0 1 1;
#X connect 9 0 19 0;
#X connect 9 1 6 0;
#X connect 9 2 18 0;
#X connect 10 0 11 0;
#X connect 10 0 15 0;
#X connect 11 0 16 0;
#X connect 12 0 17 0;
#X connect 13 0 14 0;
#X connect 14 0 17 1;
#X connect 15 0 13 0;
#X connect 16 0 12 0;
#X connect 17 0 1 0;
#X connect 18 0 7 0;
#X connect 19 0 20 0;
#X connect 20 0 7 0;
#X connect 21 0 10 0;
#X restore 688 274 pd synth3;
#N canvas 524 118 537 438 synth2 0;
#X obj 183 201 line~;
#X obj 183 347 *~;
#X obj 183 376 outlet~;
#X text 297 235 velocity(vol);
#X obj 164 49 inlet;
#X obj 183 179 pack 0 10;
#X obj 183 138 mtof;
#X obj 240 282 line~;
#X msg 164 235 0 800;
#X text 163 29 MIDI No;
#X msg 240 235 0.8 400;
#X obj 164 77 t b f b;
#X obj 164 104 del 400;
#X obj 183 302 phasor~;
#X obj 183 272 *~ 2;
#X connect 0 0 14 0;
#X connect 1 0 2 0;
#X connect 4 0 11 0;
#X connect 5 0 0 0;
#X connect 6 0 5 0;
#X connect 7 0 1 1;
#X connect 8 0 7 0;
#X connect 10 0 7 0;
#X connect 11 0 12 0;
#X connect 11 1 6 0;
#X connect 11 2 10 0;
#X connect 12 0 8 0;
#X connect 13 0 1 0;
#X connect 14 0 13 0;
#X restore 477 316 pd synth2;
#N canvas 524 118 537 438 synth2 0;
#X obj 183 201 line~;
#X obj 183 347 *~;
#X obj 183 376 outlet~;
#X text 297 235 velocity(vol);
#X obj 164 49 inlet;
#X obj 183 179 pack 0 10;
#X obj 183 138 mtof;
#X obj 240 282 line~;
#X msg 164 235 0 800;
#X text 163 29 MIDI No;
#X msg 240 235 0.8 400;
#X obj 164 77 t b f b;
#X obj 164 104 del 400;
#X obj 183 302 phasor~;
#X obj 183 272 *~ 2;
#X connect 0 0 14 0;
#X connect 1 0 2 0;
#X connect 4 0 11 0;
#X connect 5 0 0 0;
#X connect 6 0 5 0;
#X connect 7 0 1 1;
#X connect 8 0 7 0;
#X connect 10 0 7 0;
#X connect 11 0 12 0;
#X connect 11 1 6 0;
#X connect 11 2 10 0;
#X connect 12 0 8 0;
#X connect 13 0 1 0;
#X connect 14 0 13 0;
#X restore 543 274 pd synth2;
#N canvas 524 118 537 438 synth2 0;
#X obj 183 201 line~;
#X obj 183 347 *~;
#X obj 183 376 outlet~;
#X text 297 235 velocity(vol);
#X obj 164 49 inlet;
#X obj 183 179 pack 0 10;
#X obj 183 138 mtof;
#X obj 240 282 line~;
#X msg 164 235 0 800;
#X text 163 29 MIDI No;
#X msg 240 235 0.8 400;
#X obj 164 77 t b f b;
#X obj 164 104 del 400;
#X obj 183 302 phasor~;
#X obj 183 272 *~ 2;
#X connect 0 0 14 0;
#X connect 1 0 2 0;
#X connect 4 0 11 0;
#X connect 5 0 0 0;
#X connect 6 0 5 0;
#X connect 7 0 1 1;
#X connect 8 0 7 0;
#X connect 10 0 7 0;
#X connect 11 0 12 0;
#X connect 11 1 6 0;
#X connect 11 2 10 0;
#X connect 12 0 8 0;
#X connect 13 0 1 0;
#X connect 14 0 13 0;
#X restore 558 316 pd synth2;
#N canvas 166 215 615 593 synth3 0;
#X obj 183 171 line~;
#X obj 183 407 *~;
#X obj 183 436 outlet~;
#X text 297 195 velocity(vol);
#X obj 164 49 inlet;
#X obj 183 149 pack 0 10;
#X obj 183 126 mtof;
#X obj 240 390 line~;
#X text 163 29 MIDI No;
#X obj 164 77 t b f b;
#X obj 183 262 phasor~;
#X obj 183 293 *~ 2;
#X obj 183 343 clip~ 0 1;
#X obj 249 318 +~ 1;
#X obj 249 343 clip~ 0 1;
#X obj 249 293 *~ -2;
#X obj 183 318 +~ -1;
#X obj 183 372 +~;
#X msg 240 195 0.8 10;
#X obj 164 104 del 10;
#X msg 164 195 0 1200;
#X obj 183 222 *~ 6;
#X connect 0 0 21 0;
#X connect 1 0 2 0;
#X connect 4 0 9 0;
#X connect 5 0 0 0;
#X connect 6 0 5 0;
#X connect 7 0 1 1;
#X connect 9 0 19 0;
#X connect 9 1 6 0;
#X connect 9 2 18 0;
#X connect 10 0 11 0;
#X connect 10 0 15 0;
#X connect 11 0 16 0;
#X connect 12 0 17 0;
#X connect 13 0 14 0;
#X connect 14 0 17 1;
#X connect 15 0 13 0;
#X connect 16 0 12 0;
#X connect 17 0 1 0;
#X connect 18 0 7 0;
#X connect 19 0 20 0;
#X connect 20 0 7 0;
#X connect 21 0 10 0;
#X restore 703 316 pd synth3;
#N canvas 166 215 615 593 synth3 0;
#X obj 183 171 line~;
#X obj 183 407 *~;
#X obj 183 436 outlet~;
#X text 297 195 velocity(vol);
#X obj 164 49 inlet;
#X obj 183 149 pack 0 10;
#X obj 183 126 mtof;
#X obj 240 390 line~;
#X text 163 29 MIDI No;
#X obj 164 77 t b f b;
#X obj 183 262 phasor~;
#X obj 183 293 *~ 2;
#X obj 183 343 clip~ 0 1;
#X obj 249 318 +~ 1;
#X obj 249 343 clip~ 0 1;
#X obj 249 293 *~ -2;
#X obj 183 318 +~ -1;
#X obj 183 372 +~;
#X msg 240 195 0.8 10;
#X obj 164 104 del 10;
#X msg 164 195 0 1200;
#X obj 183 222 *~ 6;
#X connect 0 0 21 0;
#X connect 1 0 2 0;
#X connect 4 0 9 0;
#X connect 5 0 0 0;
#X connect 6 0 5 0;
#X connect 7 0 1 1;
#X connect 9 0 19 0;
#X connect 9 1 6 0;
#X connect 9 2 18 0;
#X connect 10 0 11 0;
#X connect 10 0 15 0;
#X connect 11 0 16 0;
#X connect 12 0 17 0;
#X connect 13 0 14 0;
#X connect 14 0 17 1;
#X connect 15 0 13 0;
#X connect 16 0 12 0;
#X connect 17 0 1 0;
#X connect 18 0 7 0;
#X connect 19 0 20 0;
#X connect 20 0 7 0;
#X connect 21 0 10 0;
#X restore 769 274 pd synth3;
#N canvas 166 215 615 593 synth3 0;
#X obj 183 171 line~;
#X obj 183 407 *~;
#X obj 183 436 outlet~;
#X text 297 195 velocity(vol);
#X obj 164 49 inlet;
#X obj 183 149 pack 0 10;
#X obj 183 126 mtof;
#X obj 240 390 line~;
#X text 163 29 MIDI No;
#X obj 164 77 t b f b;
#X obj 183 262 phasor~;
#X obj 183 293 *~ 2;
#X obj 183 343 clip~ 0 1;
#X obj 249 318 +~ 1;
#X obj 249 343 clip~ 0 1;
#X obj 249 293 *~ -2;
#X obj 183 318 +~ -1;
#X obj 183 372 +~;
#X msg 240 195 0.8 10;
#X obj 164 104 del 10;
#X msg 164 195 0 1200;
#X obj 183 222 *~ 6;
#X connect 0 0 21 0;
#X connect 1 0 2 0;
#X connect 4 0 9 0;
#X connect 5 0 0 0;
#X connect 6 0 5 0;
#X connect 7 0 1 1;
#X connect 9 0 19 0;
#X connect 9 1 6 0;
#X connect 9 2 18 0;
#X connect 10 0 11 0;
#X connect 10 0 15 0;
#X connect 11 0 16 0;
#X connect 12 0 17 0;
#X connect 13 0 14 0;
#X connect 14 0 17 1;
#X connect 15 0 13 0;
#X connect 16 0 12 0;
#X connect 17 0 1 0;
#X connect 18 0 7 0;
#X connect 19 0 20 0;
#X connect 20 0 7 0;
#X connect 21 0 10 0;
#X restore 784 316 pd synth3;
#X obj 477 297 r m2;
#X obj 543 255 r m3;
#X obj 558 297 r m4;
#X obj 703 297 r m2;
#X obj 769 255 r m3;
#X obj 784 297 r m4;
#X obj 462 338 +~;
#X obj 543 338 +~;
#X obj 462 362 +~;
#X obj 688 338 +~;
#X obj 769 338 +~;
#X obj 688 362 +~;
#X obj 688 385 bp~ 1600 0.5;
#X obj 462 386 lop~ 1800;
#X obj 248 489 +~;
#X obj 462 472 +~;
#X obj 497 560 +~;
#X obj 497 656 hip~ 5;
#X text 508 412 Vol;
#X text 741 412 Vol;
#X obj 513 631 *~ 0.95;
#X obj 508 585 delwrite~ simple_delay_2 1000;
#X obj 497 606 delread~ simple_delay_2 800;
#X obj 462 413 *~ 0.9;
#X obj 688 412 *~ 0.75;
#X obj 248 413 *~ 0.65;
#X obj 539 167 r minute;
#X obj 539 221 % 12;
#X obj 539 192 * 7;
#X obj 248 536 *~ 0.9;
#X connect 0 0 2 0;
#X connect 1 0 10 0;
#X connect 1 0 28 0;
#X connect 1 0 27 0;
#X connect 1 0 26 0;
#X connect 1 0 25 0;
#X connect 1 0 24 0;
#X connect 1 0 23 0;
#X connect 1 0 22 0;
#X connect 1 0 21 0;
#X connect 2 0 3 0;
#X connect 2 0 5 0;
#X connect 3 0 4 0;
#X connect 4 0 2 1;
#X connect 5 0 1 0;
#X connect 7 0 2 1;
#X connect 8 0 9 0;
#X connect 8 0 41 0;
#X connect 9 0 4 1;
#X connect 10 0 11 0;
#X connect 11 0 12 0;
#X connect 12 0 37 0;
#X connect 13 0 29 0;
#X connect 14 0 30 0;
#X connect 15 0 31 0;
#X connect 16 0 32 0;
#X connect 17 0 33 0;
#X connect 18 0 34 0;
#X connect 19 0 35 0;
#X connect 20 0 36 0;
#X connect 21 0 13 0;
#X connect 22 0 14 0;
#X connect 23 0 15 0;
#X connect 24 0 16 0;
#X connect 25 0 17 0;
#X connect 26 0 18 0;
#X connect 27 0 19 0;
#X connect 28 0 20 0;
#X connect 29 0 37 0;
#X connect 30 0 37 0;
#X connect 31 0 37 0;
#X connect 32 0 37 0;
#X connect 33 0 37 0;
#X connect 34 0 37 0;
#X connect 35 0 37 0;
#X connect 36 0 37 0;
#X connect 37 0 38 0;
#X connect 38 0 61 0;
#X connect 39 0 65 0;
#X connect 40 0 112 0;
#X connect 41 0 0 0;
#X connect 42 0 46 0;
#X connect 44 0 0 0;
#X connect 45 0 72 0;
#X connect 45 0 51 0;
#X connect 50 0 39 0;
#X connect 51 0 43 0;
#X connect 53 0 47 0;
#X connect 53 1 48 0;
#X connect 53 2 49 0;
#X connect 53 3 62 0;
#X connect 54 0 53 1;
#X connect 55 0 56 0;
#X connect 55 0 57 0;
#X connect 56 0 60 0;
#X connect 57 0 54 0;
#X connect 59 0 55 1;
#X connect 60 0 55 1;
#X connect 61 0 53 0;
#X connect 61 1 55 0;
#X connect 63 0 65 1;
#X connect 64 0 63 0;
#X connect 65 0 71 0;
#X connect 66 0 68 0;
#X connect 67 0 68 1;
#X connect 68 0 71 1;
#X connect 69 0 66 0;
#X connect 70 0 67 0;
#X connect 71 0 108 0;
#X connect 72 0 42 1;
#X connect 73 0 74 0;
#X connect 74 0 89 0;
#X connect 75 0 76 0;
#X connect 76 0 92 0;
#X connect 77 0 89 1;
#X connect 78 0 90 0;
#X connect 79 0 90 1;
#X connect 80 0 92 1;
#X connect 81 0 93 0;
#X connect 82 0 93 1;
#X connect 83 0 77 0;
#X connect 84 0 78 0;
#X connect 85 0 79 0;
#X connect 86 0 80 0;
#X connect 87 0 81 0;
#X connect 88 0 82 0;
#X connect 89 0 91 0;
#X connect 90 0 91 1;
#X connect 91 0 96 0;
#X connect 92 0 94 0;
#X connect 93 0 94 1;
#X connect 94 0 95 0;
#X connect 95 0 107 0;
#X connect 96 0 106 0;
#X connect 97 0 40 0;
#X connect 98 0 97 1;
#X connect 99 0 104 0;
#X connect 100 0 43 1;
#X connect 103 0 99 1;
#X connect 105 0 103 0;
#X connect 105 0 100 0;
#X connect 106 0 98 0;
#X connect 107 0 98 1;
#X connect 108 0 97 0;
#X connect 109 0 111 0;
#X connect 110 0 37 1;
#X connect 111 0 110 0;
#X connect 112 0 42 0;
#X connect 112 0 99 0;
